<?xml version="1.0" encoding="UTF-8" standalone="no"?>
<!DOCTYPE svg PUBLIC "-//W3C//DTD SVG 1.1//EN"
 "http://www.w3.org/Graphics/SVG/1.1/DTD/svg11.dtd">
<!-- Generated by graphviz version 2.43.0 (0)
 -->
<!-- Title: %3 Pages: 1 -->
<svg width="1370pt" height="585pt"
 viewBox="0.00 0.00 1370.00 585.00" xmlns="http://www.w3.org/2000/svg" xmlns:xlink="http://www.w3.org/1999/xlink">
<g id="graph0" class="graph" transform="scale(1 1) rotate(0) translate(36 549)">
<title>%3</title>
<polygon fill="white" stroke="transparent" points="-36,36 -36,-549 1334,-549 1334,36 -36,36"/>
<!-- dictIterator -->
<g id="node1" class="node">
<title>dictIterator</title>
<polygon fill="none" stroke="black" points="453,-491.5 453,-512.5 627,-512.5 627,-491.5 453,-491.5"/>
<text text-anchor="start" x="498.5" y="-499.3" font-family="Times,serif" font-style="italic" font-size="14.00">dictIterator</text>
<polygon fill="none" stroke="black" points="453,-470.5 453,-491.5 542,-491.5 542,-470.5 453,-470.5"/>
<text text-anchor="start" x="463" y="-477.3" font-family="Times,serif" font-size="14.00">long_long</text>
<polygon fill="none" stroke="black" points="542,-470.5 542,-491.5 627,-491.5 627,-470.5 542,-470.5"/>
<text text-anchor="start" x="545.5" y="-477.3" font-family="Times,serif" font-size="14.00">fingerprint</text>
<polygon fill="none" stroke="black" points="453,-449.5 453,-470.5 542,-470.5 542,-449.5 453,-449.5"/>
<text text-anchor="start" x="463.5" y="-456.3" font-family="Times,serif" font-size="14.00">dictEntry</text>
<polygon fill="none" stroke="black" points="542,-449.5 542,-470.5 627,-470.5 627,-449.5 542,-449.5"/>
<text text-anchor="start" x="561.5" y="-456.3" font-family="Times,serif" font-size="14.00">*entry</text>
<polygon fill="none" stroke="black" points="453,-428.5 453,-449.5 542,-449.5 542,-428.5 453,-428.5"/>
<text text-anchor="start" x="463.5" y="-435.3" font-family="Times,serif" font-size="14.00">dictEntry</text>
<polygon fill="none" stroke="black" points="542,-428.5 542,-449.5 627,-449.5 627,-428.5 542,-428.5"/>
<text text-anchor="start" x="545" y="-435.3" font-family="Times,serif" font-size="14.00">*nextEntry</text>
<polygon fill="none" stroke="black" points="453,-407.5 453,-428.5 542,-428.5 542,-407.5 453,-407.5"/>
<text text-anchor="start" x="487.5" y="-414.3" font-family="Times,serif" font-size="14.00">int</text>
<polygon fill="none" stroke="black" points="542,-407.5 542,-428.5 627,-428.5 627,-407.5 542,-407.5"/>
<text text-anchor="start" x="566" y="-414.3" font-family="Times,serif" font-size="14.00">table</text>
<polygon fill="none" stroke="black" points="453,-386.5 453,-407.5 542,-407.5 542,-386.5 453,-386.5"/>
<text text-anchor="start" x="487.5" y="-393.3" font-family="Times,serif" font-size="14.00">int</text>
<polygon fill="none" stroke="black" points="542,-386.5 542,-407.5 627,-407.5 627,-386.5 542,-386.5"/>
<text text-anchor="start" x="569.5" y="-393.3" font-family="Times,serif" font-size="14.00">safe</text>
<polygon fill="none" stroke="black" points="453,-365.5 453,-386.5 542,-386.5 542,-365.5 453,-365.5"/>
<text text-anchor="start" x="482" y="-372.3" font-family="Times,serif" font-size="14.00">long</text>
<polygon fill="none" stroke="black" points="542,-365.5 542,-386.5 627,-386.5 627,-365.5 542,-365.5"/>
<text text-anchor="start" x="564.5" y="-372.3" font-family="Times,serif" font-size="14.00">index</text>
<polygon fill="none" stroke="black" points="453,-344.5 453,-365.5 542,-365.5 542,-344.5 453,-344.5"/>
<text text-anchor="start" x="456" y="-351.3" font-family="Times,serif" font-size="14.00">dictIterator</text>
<polygon fill="none" stroke="black" points="542,-344.5 542,-365.5 627,-365.5 627,-344.5 542,-344.5"/>
<text text-anchor="start" x="576.5" y="-351.3" font-family="Times,serif" font-size="14.00">*d</text>
<polygon fill="none" stroke="black" points="453,-323.5 453,-344.5 542,-344.5 542,-323.5 453,-323.5"/>
<text text-anchor="start" x="483.5" y="-330.3" font-family="Times,serif" font-size="14.00">dict</text>
<polygon fill="none" stroke="black" points="542,-323.5 542,-344.5 627,-344.5 627,-323.5 542,-323.5"/>
<text text-anchor="start" x="576.5" y="-330.3" font-family="Times,serif" font-size="14.00">*d</text>
</g>
<!-- dictIterator&#45;&gt;dictIterator -->
<g id="edge3" class="edge">
<title>dictIterator:_d&#45;&gt;dictIterator:head</title>
<path fill="none" stroke="black" d="M541.9,-348.96C423.34,-337.81 226,-347.46 226,-428.5 226,-496.58 340.63,-514.28 442.66,-511.59"/>
<polygon fill="black" stroke="black" points="442.92,-515.08 452.8,-511.25 442.69,-508.09 442.92,-515.08"/>
</g>
<!-- dictEntry -->
<g id="node5" class="node">
<title>dictEntry</title>
<polygon fill="none" stroke="black" points="935.5,-428.5 935.5,-449.5 1054.5,-449.5 1054.5,-428.5 935.5,-428.5"/>
<text text-anchor="start" x="961" y="-436.3" font-family="Times,serif" font-style="italic" font-size="14.00">dictEntry</text>
<polygon fill="none" stroke="black" points="935.5,-407.5 935.5,-428.5 1009.5,-428.5 1009.5,-407.5 935.5,-407.5"/>
<text text-anchor="start" x="938.5" y="-414.3" font-family="Times,serif" font-size="14.00">dictEntry</text>
<polygon fill="none" stroke="black" points="1009.5,-407.5 1009.5,-428.5 1054.5,-428.5 1054.5,-407.5 1009.5,-407.5"/>
<text text-anchor="start" x="1012.5" y="-414.3" font-family="Times,serif" font-size="14.00">*next</text>
<polygon fill="none" stroke="black" points="935.5,-386.5 935.5,-407.5 1009.5,-407.5 1009.5,-386.5 935.5,-386.5"/>
<text text-anchor="start" x="952.5" y="-393.3" font-family="Times,serif" font-size="14.00">union</text>
<polygon fill="none" stroke="black" points="1009.5,-386.5 1009.5,-407.5 1054.5,-407.5 1054.5,-386.5 1009.5,-386.5"/>
<text text-anchor="start" x="1027.5" y="-393.3" font-family="Times,serif" font-size="14.00">v</text>
<polygon fill="none" stroke="black" points="935.5,-365.5 935.5,-386.5 1009.5,-386.5 1009.5,-365.5 935.5,-365.5"/>
<text text-anchor="start" x="957" y="-372.3" font-family="Times,serif" font-size="14.00">void</text>
<polygon fill="none" stroke="black" points="1009.5,-365.5 1009.5,-386.5 1054.5,-386.5 1054.5,-365.5 1009.5,-365.5"/>
<text text-anchor="start" x="1016" y="-372.3" font-family="Times,serif" font-size="14.00">*key</text>
</g>
<!-- dictIterator&#45;&gt;dictEntry -->
<g id="edge1" class="edge">
<title>dictIterator:_entry&#45;&gt;dictEntry:head</title>
<path fill="none" stroke="black" d="M628,-460.5C761.29,-460.5 796.47,-440.55 924.78,-439.54"/>
<polygon fill="black" stroke="black" points="925.01,-443.04 935,-439.5 924.99,-436.04 925.01,-443.04"/>
</g>
<!-- dictIterator&#45;&gt;dictEntry -->
<g id="edge2" class="edge">
<title>dictIterator:_nextEntry&#45;&gt;dictEntry:head</title>
<path fill="none" stroke="black" d="M628,-439.5C760.98,-439.5 796.76,-439.5 924.8,-439.5"/>
<polygon fill="black" stroke="black" points="925,-443 935,-439.5 925,-436 925,-443"/>
</g>
<!-- dict -->
<g id="node2" class="node">
<title>dict</title>
<polygon fill="none" stroke="black" points="0.5,-280.5 0.5,-301.5 145.5,-301.5 145.5,-280.5 0.5,-280.5"/>
<text text-anchor="start" x="59" y="-288.3" font-family="Times,serif" font-style="italic" font-size="14.00">dict</text>
<polygon fill="none" stroke="black" points="0.5,-259.5 0.5,-280.5 68.5,-280.5 68.5,-259.5 0.5,-259.5"/>
<text text-anchor="start" x="24.5" y="-266.3" font-family="Times,serif" font-size="14.00">int</text>
<polygon fill="none" stroke="black" points="68.5,-259.5 68.5,-280.5 145.5,-280.5 145.5,-259.5 68.5,-259.5"/>
<text text-anchor="start" x="75.5" y="-266.3" font-family="Times,serif" font-size="14.00">iterators</text>
<polygon fill="none" stroke="black" points="0.5,-238.5 0.5,-259.5 68.5,-259.5 68.5,-238.5 0.5,-238.5"/>
<text text-anchor="start" x="19" y="-245.3" font-family="Times,serif" font-size="14.00">long</text>
<polygon fill="none" stroke="black" points="68.5,-238.5 68.5,-259.5 145.5,-259.5 145.5,-238.5 68.5,-238.5"/>
<text text-anchor="start" x="71.5" y="-245.3" font-family="Times,serif" font-size="14.00">rehashidx</text>
<polygon fill="none" stroke="black" points="0.5,-217.5 0.5,-238.5 68.5,-238.5 68.5,-217.5 0.5,-217.5"/>
<text text-anchor="start" x="13" y="-224.3" font-family="Times,serif" font-size="14.00">dictht</text>
<polygon fill="none" stroke="black" points="68.5,-217.5 68.5,-238.5 145.5,-238.5 145.5,-217.5 68.5,-217.5"/>
<text text-anchor="start" x="89.5" y="-224.3" font-family="Times,serif" font-size="14.00">ht[2]</text>
<polygon fill="none" stroke="black" points="0.5,-196.5 0.5,-217.5 68.5,-217.5 68.5,-196.5 0.5,-196.5"/>
<text text-anchor="start" x="19" y="-203.3" font-family="Times,serif" font-size="14.00">void</text>
<polygon fill="none" stroke="black" points="68.5,-196.5 68.5,-217.5 145.5,-217.5 145.5,-196.5 68.5,-196.5"/>
<text text-anchor="start" x="73.5" y="-203.3" font-family="Times,serif" font-size="14.00">*privdata</text>
<polygon fill="none" stroke="black" points="0.5,-175.5 0.5,-196.5 68.5,-196.5 68.5,-175.5 0.5,-175.5"/>
<text text-anchor="start" x="3.5" y="-182.3" font-family="Times,serif" font-size="14.00">dictType</text>
<polygon fill="none" stroke="black" points="68.5,-175.5 68.5,-196.5 145.5,-196.5 145.5,-175.5 68.5,-175.5"/>
<text text-anchor="start" x="87.5" y="-182.3" font-family="Times,serif" font-size="14.00">*type</text>
</g>
<!-- dictht -->
<g id="node3" class="node">
<title>dictht</title>
<polygon fill="none" stroke="black" points="450,-266.5 450,-287.5 631,-287.5 631,-266.5 450,-266.5"/>
<text text-anchor="start" x="519" y="-274.3" font-family="Times,serif" font-style="italic" font-size="14.00">dictht</text>
<polygon fill="none" stroke="black" points="450,-245.5 450,-266.5 559,-266.5 559,-245.5 450,-245.5"/>
<text text-anchor="start" x="453" y="-252.3" font-family="Times,serif" font-size="14.00">unsigned_long</text>
<polygon fill="none" stroke="black" points="559,-245.5 559,-266.5 631,-266.5 631,-245.5 559,-245.5"/>
<text text-anchor="start" x="578" y="-252.3" font-family="Times,serif" font-size="14.00">used</text>
<polygon fill="none" stroke="black" points="450,-224.5 450,-245.5 559,-245.5 559,-224.5 450,-224.5"/>
<text text-anchor="start" x="453" y="-231.3" font-family="Times,serif" font-size="14.00">unsigned_long</text>
<polygon fill="none" stroke="black" points="559,-224.5 559,-245.5 631,-245.5 631,-224.5 559,-224.5"/>
<text text-anchor="start" x="562" y="-231.3" font-family="Times,serif" font-size="14.00">sizemask</text>
<polygon fill="none" stroke="black" points="450,-203.5 450,-224.5 559,-224.5 559,-203.5 450,-203.5"/>
<text text-anchor="start" x="453" y="-210.3" font-family="Times,serif" font-size="14.00">unsigned_long</text>
<polygon fill="none" stroke="black" points="559,-203.5 559,-224.5 631,-224.5 631,-203.5 559,-203.5"/>
<text text-anchor="start" x="581" y="-210.3" font-family="Times,serif" font-size="14.00">size</text>
<polygon fill="none" stroke="black" points="450,-182.5 450,-203.5 559,-203.5 559,-182.5 450,-182.5"/>
<text text-anchor="start" x="470.5" y="-189.3" font-family="Times,serif" font-size="14.00">dictEntry</text>
<polygon fill="none" stroke="black" points="559,-182.5 559,-203.5 631,-203.5 631,-182.5 559,-182.5"/>
<text text-anchor="start" x="570" y="-189.3" font-family="Times,serif" font-size="14.00">**table</text>
</g>
<!-- dict&#45;&gt;dictht -->
<g id="edge4" class="edge">
<title>dict:ht_2_&#45;&gt;dictht:head</title>
<path fill="none" stroke="black" d="M145,-227.5C278.45,-227.5 310.47,-274.99 438.77,-277.4"/>
<polygon fill="black" stroke="black" points="438.97,-280.91 449,-277.5 439.03,-273.91 438.97,-280.91"/>
</g>
<!-- dictType -->
<g id="node4" class="node">
<title>dictType</title>
<polygon fill="none" stroke="black" points="289,-125.5 289,-146.5 791,-146.5 791,-125.5 289,-125.5"/>
<text text-anchor="start" x="509" y="-133.3" font-family="Times,serif" font-style="italic" font-size="14.00">dictType</text>
<polygon fill="none" stroke="black" points="289,-104.5 289,-125.5 791,-125.5 791,-104.5 289,-104.5"/>
<text text-anchor="start" x="373" y="-111.3" font-family="Times,serif" font-size="14.00">void (*valDestructor)(void *privdata, void *obj)</text>
<polygon fill="none" stroke="black" points="289,-83.5 289,-104.5 791,-104.5 791,-83.5 289,-83.5"/>
<text text-anchor="start" x="369.5" y="-90.3" font-family="Times,serif" font-size="14.00">void (*keyDestructor)(void *privdata, void *key)</text>
<polygon fill="none" stroke="black" points="289,-62.5 289,-83.5 791,-83.5 791,-62.5 289,-62.5"/>
<text text-anchor="start" x="292" y="-69.3" font-family="Times,serif" font-size="14.00">int (*keyCompare)(void *privdata, const void *key1, const void *key2)</text>
<polygon fill="none" stroke="black" points="289,-41.5 289,-62.5 791,-62.5 791,-41.5 289,-41.5"/>
<text text-anchor="start" x="372" y="-48.3" font-family="Times,serif" font-size="14.00">void *(*valDup)(void *privdata, const void *obj)</text>
<polygon fill="none" stroke="black" points="289,-20.5 289,-41.5 791,-41.5 791,-20.5 289,-20.5"/>
<text text-anchor="start" x="368.5" y="-27.3" font-family="Times,serif" font-size="14.00">void *(*keyDup)(void *privdata, const void *key)</text>
<polygon fill="none" stroke="black" points="289,0.5 289,-20.5 791,-20.5 791,0.5 289,0.5"/>
<text text-anchor="start" x="376" y="-6.3" font-family="Times,serif" font-size="14.00">unsigned int (*hashFunction)(const void *key)</text>
</g>
<!-- dict&#45;&gt;dictType -->
<g id="edge5" class="edge">
<title>dict:_type&#45;&gt;dictType:head</title>
<path fill="none" stroke="black" d="M145,-185.5C209.04,-185.5 220.31,-141.53 278.78,-136.89"/>
<polygon fill="black" stroke="black" points="279.14,-140.38 289,-136.5 278.87,-133.39 279.14,-140.38"/>
</g>
<!-- dictht&#45;&gt;dictEntry -->
<g id="edge6" class="edge">
<title>dictht:__table&#45;&gt;dictEntry:head</title>
<path fill="none" stroke="black" d="M632,-192.5C718.95,-192.5 723.6,-251.56 791,-306.5 855.76,-359.29 848.62,-433.14 924.76,-439.11"/>
<polygon fill="black" stroke="black" points="924.88,-442.62 935,-439.5 925.14,-435.63 924.88,-442.62"/>
</g>
<!-- dictEntry&#45;&gt;dictEntry -->
<g id="edge7" class="edge">
<title>dictEntry:_next&#45;&gt;dictEntry:head</title>
<path fill="none" stroke="black" d="M1009.44,-413.34C937.8,-400.83 809,-403.56 809,-429 809,-449.15 871.34,-455.06 929.72,-450.42"/>
<polygon fill="black" stroke="black" points="930.15,-453.89 939.8,-449.51 929.52,-446.92 930.15,-453.89"/>
</g>
<!-- v -->
<g id="node6" class="node">
<title>v</title>
<polygon fill="none" stroke="black" points="1198,-385.5 1198,-406.5 1298,-406.5 1298,-385.5 1198,-385.5"/>
<text text-anchor="start" x="1243.5" y="-393.3" font-family="Times,serif" font-style="italic" font-size="14.00">v</text>
<polygon fill="none" stroke="black" points="1198,-364.5 1198,-385.5 1264,-385.5 1264,-364.5 1198,-364.5"/>
<text text-anchor="start" x="1206.5" y="-371.3" font-family="Times,serif" font-size="14.00">double</text>
<polygon fill="none" stroke="black" points="1264,-364.5 1264,-385.5 1298,-385.5 1298,-364.5 1264,-364.5"/>
<text text-anchor="start" x="1276" y="-371.3" font-family="Times,serif" font-size="14.00">d</text>
<polygon fill="none" stroke="black" points="1198,-343.5 1198,-364.5 1264,-364.5 1264,-343.5 1198,-343.5"/>
<text text-anchor="start" x="1205.5" y="-350.3" font-family="Times,serif" font-size="14.00">int64_t</text>
<polygon fill="none" stroke="black" points="1264,-343.5 1264,-364.5 1298,-364.5 1298,-343.5 1264,-343.5"/>
<text text-anchor="start" x="1268" y="-350.3" font-family="Times,serif" font-size="14.00">s64</text>
<polygon fill="none" stroke="black" points="1198,-322.5 1198,-343.5 1264,-343.5 1264,-322.5 1198,-322.5"/>
<text text-anchor="start" x="1201" y="-329.3" font-family="Times,serif" font-size="14.00">uint64_t</text>
<polygon fill="none" stroke="black" points="1264,-322.5 1264,-343.5 1298,-343.5 1298,-322.5 1264,-322.5"/>
<text text-anchor="start" x="1267" y="-329.3" font-family="Times,serif" font-size="14.00">u64</text>
<polygon fill="none" stroke="black" points="1198,-301.5 1198,-322.5 1264,-322.5 1264,-301.5 1198,-301.5"/>
<text text-anchor="start" x="1215.5" y="-308.3" font-family="Times,serif" font-size="14.00">void</text>
<polygon fill="none" stroke="black" points="1264,-301.5 1264,-322.5 1298,-322.5 1298,-301.5 1264,-301.5"/>
<text text-anchor="start" x="1267" y="-308.3" font-family="Times,serif" font-size="14.00">*val</text>
</g>
<!-- dictEntry&#45;&gt;v -->
<g id="edge8" class="edge">
<title>dictEntry:v&#45;&gt;v:head</title>
<path fill="none" stroke="black" d="M1054,-396.5C1114.5,-396.5 1132.11,-396.5 1187.91,-396.5"/>
<polygon fill="black" stroke="black" points="1188,-400 1198,-396.5 1188,-393 1188,-400"/>
</g>
</g>
</svg>
