<?xml version="1.0" encoding="UTF-8" standalone="no"?>
<!DOCTYPE svg PUBLIC "-//W3C//DTD SVG 1.1//EN"
 "http://www.w3.org/Graphics/SVG/1.1/DTD/svg11.dtd">
<!-- Generated by graphviz version 2.43.0 (0)
 -->
<!-- Title: %3 Pages: 1 -->
<svg width="1674pt" height="499pt"
 viewBox="0.00 0.00 1674.00 498.50" xmlns="http://www.w3.org/2000/svg" xmlns:xlink="http://www.w3.org/1999/xlink">
<g id="graph0" class="graph" transform="scale(1 1) rotate(0) translate(36 462.5)">
<title>%3</title>
<polygon fill="white" stroke="transparent" points="-36,36 -36,-462.5 1638,-462.5 1638,36 -36,36"/>
<!-- dictIterator -->
<g id="node1" class="node">
<title>dictIterator</title>
<polygon fill="none" stroke="black" points="0,-405.5 0,-426.5 160,-426.5 160,-405.5 0,-405.5"/>
<text text-anchor="start" x="38.5" y="-413.3" font-family="Times,serif" font-style="italic" font-size="14.00">dictIterator</text>
<polygon fill="none" stroke="black" points="0,-384.5 0,-405.5 75,-405.5 75,-384.5 0,-384.5"/>
<text text-anchor="start" x="3" y="-391.3" font-family="Times,serif" font-size="14.00">long_long</text>
<polygon fill="none" stroke="black" points="75,-384.5 75,-405.5 160,-405.5 160,-384.5 75,-384.5"/>
<text text-anchor="start" x="78.5" y="-391.3" font-family="Times,serif" font-size="14.00">fingerprint</text>
<polygon fill="none" stroke="black" points="0,-363.5 0,-384.5 75,-384.5 75,-363.5 0,-363.5"/>
<text text-anchor="start" x="3.5" y="-370.3" font-family="Times,serif" font-size="14.00">dictEntry</text>
<polygon fill="none" stroke="black" points="75,-363.5 75,-384.5 160,-384.5 160,-363.5 75,-363.5"/>
<text text-anchor="start" x="94.5" y="-370.3" font-family="Times,serif" font-size="14.00">*entry</text>
<polygon fill="none" stroke="black" points="0,-342.5 0,-363.5 75,-363.5 75,-342.5 0,-342.5"/>
<text text-anchor="start" x="3.5" y="-349.3" font-family="Times,serif" font-size="14.00">dictEntry</text>
<polygon fill="none" stroke="black" points="75,-342.5 75,-363.5 160,-363.5 160,-342.5 75,-342.5"/>
<text text-anchor="start" x="78" y="-349.3" font-family="Times,serif" font-size="14.00">*nextEntry</text>
<polygon fill="none" stroke="black" points="0,-321.5 0,-342.5 75,-342.5 75,-321.5 0,-321.5"/>
<text text-anchor="start" x="27.5" y="-328.3" font-family="Times,serif" font-size="14.00">int</text>
<polygon fill="none" stroke="black" points="75,-321.5 75,-342.5 160,-342.5 160,-321.5 75,-321.5"/>
<text text-anchor="start" x="99" y="-328.3" font-family="Times,serif" font-size="14.00">table</text>
<polygon fill="none" stroke="black" points="0,-300.5 0,-321.5 75,-321.5 75,-300.5 0,-300.5"/>
<text text-anchor="start" x="27.5" y="-307.3" font-family="Times,serif" font-size="14.00">int</text>
<polygon fill="none" stroke="black" points="75,-300.5 75,-321.5 160,-321.5 160,-300.5 75,-300.5"/>
<text text-anchor="start" x="102.5" y="-307.3" font-family="Times,serif" font-size="14.00">safe</text>
<polygon fill="none" stroke="black" points="0,-279.5 0,-300.5 75,-300.5 75,-279.5 0,-279.5"/>
<text text-anchor="start" x="22" y="-286.3" font-family="Times,serif" font-size="14.00">long</text>
<polygon fill="none" stroke="black" points="75,-279.5 75,-300.5 160,-300.5 160,-279.5 75,-279.5"/>
<text text-anchor="start" x="97.5" y="-286.3" font-family="Times,serif" font-size="14.00">index</text>
<polygon fill="none" stroke="black" points="0,-258.5 0,-279.5 75,-279.5 75,-258.5 0,-258.5"/>
<text text-anchor="start" x="23.5" y="-265.3" font-family="Times,serif" font-size="14.00">dict</text>
<polygon fill="none" stroke="black" points="75,-258.5 75,-279.5 160,-279.5 160,-258.5 75,-258.5"/>
<text text-anchor="start" x="109.5" y="-265.3" font-family="Times,serif" font-size="14.00">*d</text>
</g>
<!-- dict -->
<g id="node2" class="node">
<title>dict</title>
<polygon fill="none" stroke="black" points="304.5,-257.5 304.5,-278.5 449.5,-278.5 449.5,-257.5 304.5,-257.5"/>
<text text-anchor="start" x="363" y="-265.3" font-family="Times,serif" font-style="italic" font-size="14.00">dict</text>
<polygon fill="none" stroke="black" points="304.5,-236.5 304.5,-257.5 372.5,-257.5 372.5,-236.5 304.5,-236.5"/>
<text text-anchor="start" x="328.5" y="-243.3" font-family="Times,serif" font-size="14.00">int</text>
<polygon fill="none" stroke="black" points="372.5,-236.5 372.5,-257.5 449.5,-257.5 449.5,-236.5 372.5,-236.5"/>
<text text-anchor="start" x="379.5" y="-243.3" font-family="Times,serif" font-size="14.00">iterators</text>
<polygon fill="none" stroke="black" points="304.5,-215.5 304.5,-236.5 372.5,-236.5 372.5,-215.5 304.5,-215.5"/>
<text text-anchor="start" x="323" y="-222.3" font-family="Times,serif" font-size="14.00">long</text>
<polygon fill="none" stroke="black" points="372.5,-215.5 372.5,-236.5 449.5,-236.5 449.5,-215.5 372.5,-215.5"/>
<text text-anchor="start" x="375.5" y="-222.3" font-family="Times,serif" font-size="14.00">rehashidx</text>
<polygon fill="none" stroke="black" points="304.5,-194.5 304.5,-215.5 372.5,-215.5 372.5,-194.5 304.5,-194.5"/>
<text text-anchor="start" x="317" y="-201.3" font-family="Times,serif" font-size="14.00">dictht</text>
<polygon fill="none" stroke="black" points="372.5,-194.5 372.5,-215.5 449.5,-215.5 449.5,-194.5 372.5,-194.5"/>
<text text-anchor="start" x="393.5" y="-201.3" font-family="Times,serif" font-size="14.00">ht[2]</text>
<polygon fill="none" stroke="black" points="304.5,-173.5 304.5,-194.5 372.5,-194.5 372.5,-173.5 304.5,-173.5"/>
<text text-anchor="start" x="323" y="-180.3" font-family="Times,serif" font-size="14.00">void</text>
<polygon fill="none" stroke="black" points="372.5,-173.5 372.5,-194.5 449.5,-194.5 449.5,-173.5 372.5,-173.5"/>
<text text-anchor="start" x="377.5" y="-180.3" font-family="Times,serif" font-size="14.00">*privdata</text>
<polygon fill="none" stroke="black" points="304.5,-152.5 304.5,-173.5 372.5,-173.5 372.5,-152.5 304.5,-152.5"/>
<text text-anchor="start" x="307.5" y="-159.3" font-family="Times,serif" font-size="14.00">dictType</text>
<polygon fill="none" stroke="black" points="372.5,-152.5 372.5,-173.5 449.5,-173.5 449.5,-152.5 372.5,-152.5"/>
<text text-anchor="start" x="391.5" y="-159.3" font-family="Times,serif" font-size="14.00">*type</text>
</g>
<!-- dictIterator&#45;&gt;dict -->
<g id="edge3" class="edge">
<title>dictIterator:_d&#45;&gt;dict:head</title>
<path fill="none" stroke="black" d="M160,-268.5C220.5,-268.5 238.11,-268.5 293.91,-268.5"/>
<polygon fill="black" stroke="black" points="294,-272 304,-268.5 294,-265 294,-272"/>
</g>
<!-- dictEntry -->
<g id="node5" class="node">
<title>dictEntry</title>
<polygon fill="none" stroke="black" points="1239.5,-332.5 1239.5,-353.5 1358.5,-353.5 1358.5,-332.5 1239.5,-332.5"/>
<text text-anchor="start" x="1265" y="-340.3" font-family="Times,serif" font-style="italic" font-size="14.00">dictEntry</text>
<polygon fill="none" stroke="black" points="1239.5,-311.5 1239.5,-332.5 1313.5,-332.5 1313.5,-311.5 1239.5,-311.5"/>
<text text-anchor="start" x="1242.5" y="-318.3" font-family="Times,serif" font-size="14.00">dictEntry</text>
<polygon fill="none" stroke="black" points="1313.5,-311.5 1313.5,-332.5 1358.5,-332.5 1358.5,-311.5 1313.5,-311.5"/>
<text text-anchor="start" x="1316.5" y="-318.3" font-family="Times,serif" font-size="14.00">*next</text>
<polygon fill="none" stroke="black" points="1239.5,-290.5 1239.5,-311.5 1313.5,-311.5 1313.5,-290.5 1239.5,-290.5"/>
<text text-anchor="start" x="1256.5" y="-297.3" font-family="Times,serif" font-size="14.00">union</text>
<polygon fill="none" stroke="black" points="1313.5,-290.5 1313.5,-311.5 1358.5,-311.5 1358.5,-290.5 1313.5,-290.5"/>
<text text-anchor="start" x="1331.5" y="-297.3" font-family="Times,serif" font-size="14.00">v</text>
<polygon fill="none" stroke="black" points="1239.5,-269.5 1239.5,-290.5 1313.5,-290.5 1313.5,-269.5 1239.5,-269.5"/>
<text text-anchor="start" x="1261" y="-276.3" font-family="Times,serif" font-size="14.00">void</text>
<polygon fill="none" stroke="black" points="1313.5,-269.5 1313.5,-290.5 1358.5,-290.5 1358.5,-269.5 1313.5,-269.5"/>
<text text-anchor="start" x="1320" y="-276.3" font-family="Times,serif" font-size="14.00">*key</text>
</g>
<!-- dictIterator&#45;&gt;dictEntry -->
<g id="edge1" class="edge">
<title>dictIterator:_entry&#45;&gt;dictEntry:head</title>
<path fill="none" stroke="black" d="M160,-374.5C575.56,-374.5 681.42,-412.01 1095,-371.5 1156.34,-365.49 1172.13,-345.82 1228.75,-343.69"/>
<polygon fill="black" stroke="black" points="1229.07,-347.18 1239,-343.5 1228.94,-340.18 1229.07,-347.18"/>
</g>
<!-- dictIterator&#45;&gt;dictEntry -->
<g id="edge2" class="edge">
<title>dictIterator:_nextEntry&#45;&gt;dictEntry:head</title>
<path fill="none" stroke="black" d="M160,-353.5C636.18,-353.5 757.71,-343.64 1228.87,-343.5"/>
<polygon fill="black" stroke="black" points="1229,-347 1239,-343.5 1229,-340 1229,-347"/>
</g>
<!-- dictht -->
<g id="node3" class="node">
<title>dictht</title>
<polygon fill="none" stroke="black" points="754,-266.5 754,-287.5 935,-287.5 935,-266.5 754,-266.5"/>
<text text-anchor="start" x="823" y="-274.3" font-family="Times,serif" font-style="italic" font-size="14.00">dictht</text>
<polygon fill="none" stroke="black" points="754,-245.5 754,-266.5 863,-266.5 863,-245.5 754,-245.5"/>
<text text-anchor="start" x="757" y="-252.3" font-family="Times,serif" font-size="14.00">unsigned_long</text>
<polygon fill="none" stroke="black" points="863,-245.5 863,-266.5 935,-266.5 935,-245.5 863,-245.5"/>
<text text-anchor="start" x="882" y="-252.3" font-family="Times,serif" font-size="14.00">used</text>
<polygon fill="none" stroke="black" points="754,-224.5 754,-245.5 863,-245.5 863,-224.5 754,-224.5"/>
<text text-anchor="start" x="757" y="-231.3" font-family="Times,serif" font-size="14.00">unsigned_long</text>
<polygon fill="none" stroke="black" points="863,-224.5 863,-245.5 935,-245.5 935,-224.5 863,-224.5"/>
<text text-anchor="start" x="866" y="-231.3" font-family="Times,serif" font-size="14.00">sizemask</text>
<polygon fill="none" stroke="black" points="754,-203.5 754,-224.5 863,-224.5 863,-203.5 754,-203.5"/>
<text text-anchor="start" x="757" y="-210.3" font-family="Times,serif" font-size="14.00">unsigned_long</text>
<polygon fill="none" stroke="black" points="863,-203.5 863,-224.5 935,-224.5 935,-203.5 863,-203.5"/>
<text text-anchor="start" x="885" y="-210.3" font-family="Times,serif" font-size="14.00">size</text>
<polygon fill="none" stroke="black" points="754,-182.5 754,-203.5 863,-203.5 863,-182.5 754,-182.5"/>
<text text-anchor="start" x="774.5" y="-189.3" font-family="Times,serif" font-size="14.00">dictEntry</text>
<polygon fill="none" stroke="black" points="863,-182.5 863,-203.5 935,-203.5 935,-182.5 863,-182.5"/>
<text text-anchor="start" x="874" y="-189.3" font-family="Times,serif" font-size="14.00">**table</text>
</g>
<!-- dict&#45;&gt;dictht -->
<g id="edge4" class="edge">
<title>dict:ht_2_&#45;&gt;dictht:head</title>
<path fill="none" stroke="black" d="M449,-204.5C584.42,-204.5 612.65,-273.84 742.63,-277.36"/>
<polygon fill="black" stroke="black" points="742.95,-280.87 753,-277.5 743.05,-273.87 742.95,-280.87"/>
</g>
<!-- dictType -->
<g id="node4" class="node">
<title>dictType</title>
<polygon fill="none" stroke="black" points="593,-125.5 593,-146.5 1095,-146.5 1095,-125.5 593,-125.5"/>
<text text-anchor="start" x="813" y="-133.3" font-family="Times,serif" font-style="italic" font-size="14.00">dictType</text>
<polygon fill="none" stroke="black" points="593,-104.5 593,-125.5 1095,-125.5 1095,-104.5 593,-104.5"/>
<text text-anchor="start" x="677" y="-111.3" font-family="Times,serif" font-size="14.00">void (*valDestructor)(void *privdata, void *obj)</text>
<polygon fill="none" stroke="black" points="593,-83.5 593,-104.5 1095,-104.5 1095,-83.5 593,-83.5"/>
<text text-anchor="start" x="673.5" y="-90.3" font-family="Times,serif" font-size="14.00">void (*keyDestructor)(void *privdata, void *key)</text>
<polygon fill="none" stroke="black" points="593,-62.5 593,-83.5 1095,-83.5 1095,-62.5 593,-62.5"/>
<text text-anchor="start" x="596" y="-69.3" font-family="Times,serif" font-size="14.00">int (*keyCompare)(void *privdata, const void *key1, const void *key2)</text>
<polygon fill="none" stroke="black" points="593,-41.5 593,-62.5 1095,-62.5 1095,-41.5 593,-41.5"/>
<text text-anchor="start" x="676" y="-48.3" font-family="Times,serif" font-size="14.00">void *(*valDup)(void *privdata, const void *obj)</text>
<polygon fill="none" stroke="black" points="593,-20.5 593,-41.5 1095,-41.5 1095,-20.5 593,-20.5"/>
<text text-anchor="start" x="672.5" y="-27.3" font-family="Times,serif" font-size="14.00">void *(*keyDup)(void *privdata, const void *key)</text>
<polygon fill="none" stroke="black" points="593,0.5 593,-20.5 1095,-20.5 1095,0.5 593,0.5"/>
<text text-anchor="start" x="680" y="-6.3" font-family="Times,serif" font-size="14.00">unsigned int (*hashFunction)(const void *key)</text>
</g>
<!-- dict&#45;&gt;dictType -->
<g id="edge5" class="edge">
<title>dict:_type&#45;&gt;dictType:head</title>
<path fill="none" stroke="black" d="M449,-162.5C510.48,-162.5 526.29,-139.27 582.77,-136.72"/>
<polygon fill="black" stroke="black" points="583.08,-140.22 593,-136.5 582.93,-133.22 583.08,-140.22"/>
</g>
<!-- dictht&#45;&gt;dictEntry -->
<g id="edge6" class="edge">
<title>dictht:__table&#45;&gt;dictEntry:head</title>
<path fill="none" stroke="black" d="M936,-192.5C1082.94,-192.5 1088.36,-336.5 1228.66,-343.26"/>
<polygon fill="black" stroke="black" points="1228.92,-346.76 1239,-343.5 1229.09,-339.76 1228.92,-346.76"/>
</g>
<!-- dictEntry&#45;&gt;dictEntry -->
<g id="edge7" class="edge">
<title>dictEntry:_next&#45;&gt;dictEntry:head</title>
<path fill="none" stroke="black" d="M1313.44,-317.34C1241.8,-304.83 1113,-307.56 1113,-333 1113,-353.15 1175.34,-359.06 1233.72,-354.42"/>
<polygon fill="black" stroke="black" points="1234.15,-357.89 1243.8,-353.51 1233.52,-350.92 1234.15,-357.89"/>
</g>
<!-- v -->
<g id="node6" class="node">
<title>v</title>
<polygon fill="none" stroke="black" points="1502,-289.5 1502,-310.5 1602,-310.5 1602,-289.5 1502,-289.5"/>
<text text-anchor="start" x="1547.5" y="-297.3" font-family="Times,serif" font-style="italic" font-size="14.00">v</text>
<polygon fill="none" stroke="black" points="1502,-268.5 1502,-289.5 1568,-289.5 1568,-268.5 1502,-268.5"/>
<text text-anchor="start" x="1510.5" y="-275.3" font-family="Times,serif" font-size="14.00">double</text>
<polygon fill="none" stroke="black" points="1568,-268.5 1568,-289.5 1602,-289.5 1602,-268.5 1568,-268.5"/>
<text text-anchor="start" x="1580" y="-275.3" font-family="Times,serif" font-size="14.00">d</text>
<polygon fill="none" stroke="black" points="1502,-247.5 1502,-268.5 1568,-268.5 1568,-247.5 1502,-247.5"/>
<text text-anchor="start" x="1509.5" y="-254.3" font-family="Times,serif" font-size="14.00">int64_t</text>
<polygon fill="none" stroke="black" points="1568,-247.5 1568,-268.5 1602,-268.5 1602,-247.5 1568,-247.5"/>
<text text-anchor="start" x="1572" y="-254.3" font-family="Times,serif" font-size="14.00">s64</text>
<polygon fill="none" stroke="black" points="1502,-226.5 1502,-247.5 1568,-247.5 1568,-226.5 1502,-226.5"/>
<text text-anchor="start" x="1505" y="-233.3" font-family="Times,serif" font-size="14.00">uint64_t</text>
<polygon fill="none" stroke="black" points="1568,-226.5 1568,-247.5 1602,-247.5 1602,-226.5 1568,-226.5"/>
<text text-anchor="start" x="1571" y="-233.3" font-family="Times,serif" font-size="14.00">u64</text>
<polygon fill="none" stroke="black" points="1502,-205.5 1502,-226.5 1568,-226.5 1568,-205.5 1502,-205.5"/>
<text text-anchor="start" x="1519.5" y="-212.3" font-family="Times,serif" font-size="14.00">void</text>
<polygon fill="none" stroke="black" points="1568,-205.5 1568,-226.5 1602,-226.5 1602,-205.5 1568,-205.5"/>
<text text-anchor="start" x="1571" y="-212.3" font-family="Times,serif" font-size="14.00">*val</text>
</g>
<!-- dictEntry&#45;&gt;v -->
<g id="edge8" class="edge">
<title>dictEntry:v&#45;&gt;v:head</title>
<path fill="none" stroke="black" d="M1358,-300.5C1418.5,-300.5 1436.11,-300.5 1491.91,-300.5"/>
<polygon fill="black" stroke="black" points="1492,-304 1502,-300.5 1492,-297 1492,-304"/>
</g>
</g>
</svg>
